<?xml version="1.0" encoding="utf-8"?>
<!-- Generator: Adobe Illustrator 16.0.0, SVG Export Plug-In . SVG Version: 6.00 Build 0)  -->
<!DOCTYPE svg PUBLIC "-//W3C//DTD SVG 1.1//EN" "http://www.w3.org/Graphics/SVG/1.1/DTD/svg11.dtd">
<svg version="1.1" id="Layer_1" xmlns="http://www.w3.org/2000/svg" xmlns:xlink="http://www.w3.org/1999/xlink" x="0px" y="0px"
	 width="158.729px" height="118.192px" viewBox="0 0 158.729 118.192" enable-background="new 0 0 158.729 118.192"
	 xml:space="preserve">
<g>
	<defs>
		<path id="SVGID_1_" d="M34.603,118.192H58.53v-96.34h3.872h30.424h5.772h4.802c23.629,0,31.403,15.227,31.403,39.063
			c0,26.157-13.261,35.429-27.131,35.429H86.329V55.452H62.401v62.741h46.946c33.229,0,49.382-25.49,49.382-59.756
			C158.729,19.369,137.546,0,109.348,0H92.825H62.401H0v21.686h34.603V118.192z"/>
	</defs>
	<clipPath id="SVGID_2_">
		<use xlink:href="#SVGID_1_"  overflow="visible"/>
	</clipPath>
	<linearGradient id="SVGID_3_" gradientUnits="userSpaceOnUse" x1="28.4702" y1="3.584" x2="138.92" y2="124.0535">
		<stop  offset="0" style="stop-color:#00A5A4"/>
		<stop  offset="1" style="stop-color:#0067B2"/>
	</linearGradient>
	<rect clip-path="url(#SVGID_2_)" fill="url(#SVGID_3_)" width="158.729" height="118.192"/>
	<linearGradient id="SVGID_4_" gradientUnits="userSpaceOnUse" x1="-922.1943" y1="-55.5068" x2="-811.7451" y2="64.9621">
		<stop  offset="0" style="stop-color:#00A5A4"/>
		<stop  offset="1" style="stop-color:#0067B2"/>
	</linearGradient>
	<rect x="-950.665" y="-59.091" clip-path="url(#SVGID_2_)" fill="url(#SVGID_4_)" width="158.729" height="118.19"/>
	<linearGradient id="SVGID_5_" gradientUnits="userSpaceOnUse" x1="-976.1318" y1="-223.4063" x2="-865.6832" y2="-102.9379">
		<stop  offset="0" style="stop-color:#00A5A4"/>
		<stop  offset="1" style="stop-color:#0067B2"/>
	</linearGradient>
	<rect x="-1004.604" y="-226.991" clip-path="url(#SVGID_2_)" fill="url(#SVGID_5_)" width="158.729" height="118.19"/>
</g>
</svg>
